<svg xmlns="http://www.w3.org/2000/svg" width="600" height="500" viewBox="0 0 600 500" preserveAspectRatio="xMinYMin" class="birds">
<path id="path14437" d="m 439.66868,103.73835 37.57052,-12.003657 -25.652630000000002,-23.560900000000004 z" style="fill: rgb(57, 57, 57);"/><path id="path14439" d="m 440.74012,104.09548 -30.64378,-29.860787 41.6688,-6.06091 z" style="fill: rgb(70, 75, 94);"/><path id="path4158" d="m 410.75154,74.322373 23.00942,-28.19338 18.465940000000003,22.17106 z" style="fill: rgb(91, 96, 115);"/><path id="path4160" d="m 434.69933,46.490883 -31.717380000000006,-5.686859999999999 7.8925100000000015,33.83614 z" style="fill: rgb(119, 123, 135);"/><path id="path4166" d="m 403.3846,40.682503 -41.8189,5.42482 49.5613,28.785379999999996 z" style="fill: rgb(89, 95, 111);"/><path id="path4168" d="m 336.90579,72.058503 74.15737999999999,1.828009999999999 -49.68618,-28.54077 z" style="fill: rgb(104, 108, 119);"/><path id="path4174" d="m 337.08436,71.701363 73.97880999999998,2.18515 -37.05927,13.88564 z" style="fill: rgb(52, 58, 72);"/><path id="path4176" d="m 406.31045,97.564853 4.7527199999999965,-23.67834 -39.21482,14.27342 z" style="fill: rgb(70, 77, 90);"/><path id="path4178" d="m 405.65744,96.955173 5.40573,-23.06866 30.664280000000005,29.395067000000004 z" style="fill: rgb(91, 96, 115);"/><path id="path4213" d="m 409.44552,65.936313 -7.347449999999999,3.40452 9.028929999999999,5.55187 z" style="fill: rgb(21, 21, 21);"/><path id="path4215" d="m 400.60668,73.765003 1.7439299999999998,-4.67671 8.77639,5.80441 z" style="fill: rgb(21, 21, 21);"/><path id="path4217" d="m 400.60668,73.259923 0.9863,7.19258 9.53402,-5.5598 z" style="fill: rgb(21, 21, 21);"/><path id="path4219" d="m 408.56163,84.624143 -7.0949100000000005,-4.29791 9.66028,-5.5598 z" style="fill: rgb(21, 21, 21);"/><path id="path4221" d="m 408.30909,84.497873 8.309919999999998,-2.40387 -5.61828,-7.58011 z" style="fill: rgb(21, 21, 21);"/><path id="path4223" d="m 409.44552,65.936313 7.42603,2.64691 -6.12336,6.940829999999999 z" style="fill: rgb(21, 21, 21);"/><path id="path4225" d="m 418.78943,74.648883 -1.9178800000000003,-6.06566 -5.74455,6.30948 z" style="fill: rgb(21, 21, 21);"/><path id="path4227" d="m 418.78943,74.648883 -2.29669,7.69767 -5.365739999999999,-7.453850000000001 z" style="fill: rgb(21, 21, 21);"/><path xmlns="http://www.w3.org/2000/svg" id="path4229" d="m 337.97722,70.987073 -33.34262,40.75657699999999 29.01216,1.028500000000001 z" style="fill: rgb(0, 163, 163);"/><path xmlns="http://www.w3.org/2000/svg" id="path4231" d="m 337.97722,70.987073 34.33596,46.649426999999996 -40.80927,-4.507210000000001 z" style="fill: rgb(0, 184, 184);"/><path xmlns="http://www.w3.org/2000/svg" id="path4233" d="m 337.97722,71.344213 45.19509,19.575559999999996 -11.181919999999998,26.500226999999995 z" style="fill: rgb(0, 176, 176);"/><path xmlns="http://www.w3.org/2000/svg" id="path4235" d="m 371.42599,117.52459 10.370049999999999,-27.214497 59.26353,13.094037 z" style="fill: rgb(0, 201, 201);"/><path xmlns="http://www.w3.org/2000/svg" id="path4237" d="m 369.93243,117.27206 71.57093999999998,-13.91293 10.71481,46.55588 z" style="fill: rgb(2, 194, 194);"/><path id="path4387" d="m 296.25549,143.7592 9.271969999999996,-32.372690000000006 -26.608409999999992,30.81312 z" style="fill: rgb(108, 104, 118);"/><path id="path4389" d="m 296.07692,143.7592 9.09339,-32.55126 26.60588,1.3488399999999992 z" style="fill: rgb(178, 177, 185);"/><path id="path4391" d="m 295.00549,144.29491 76.23626,-27.55126 -39.64413,-4.008299999999998 z" style="fill: rgb(138, 137, 145);"/><path id="path4399" d="m 296.25549,143.7592 -59.29945,47.62731 41.96301,-49.18688 z" style="fill: rgb(178, 177, 183);"/><path id="path4401" d="m 296.25549,143.7592 -59.29945000000001,47.627309999999994 35.53444,4.384540000000001 z" style="fill: rgb(138, 136, 149);"/><path id="path4403" d="m 296.25549,143.7592 76.77198000000001,-28.086979999999997 -100.53699,80.09883 z" style="fill: rgb(178, 177, 183);"/><path id="path4405" d="m 351.96978,174.47348 19.98626,-58.44412 -99.46556,79.74169 z" style="fill: rgb(138, 136, 149);"/><path xmlns="http://www.w3.org/2000/svg" id="path4407" d="m 351.96978,174.47348 19.27198,-58.44412 31.963000000000008,53.31311000000001 z" style="fill: rgb(0, 163, 163);"/><path xmlns="http://www.w3.org/2000/svg" id="path4409" d="m 402.86264,169.65205 -31.978030000000004,-53.26555 81.24872,33.31311 z" style="fill: rgb(0, 176, 176);"/><path xmlns="http://www.w3.org/2000/svg" id="path4514" d="m 402.86264,169.65205 48.89545,-21.443199999999997 0.3752400000000051,50.06219 z" style="fill: rgb(2, 194, 194);"/><path xmlns="http://www.w3.org/2000/svg" id="path4516" d="m 452.14835,197.86634 -49.31883,-29.30035 38.54928,74.84321 z" style="fill: rgb(0, 176, 176);"/><path xmlns="http://www.w3.org/2000/svg" style="fill: rgb(2, 194, 194);" d="m 388.93407,205.36634 13.556780000000003,-37.79563 38.53081,74.05278 z" id="path4518"/><path xmlns="http://www.w3.org/2000/svg" style="fill: rgb(0, 184, 184);" d="m 403.93407,168.22348 -16.08608,40.41866 -38.01055,-34.96936 z" id="path4520"/><path xmlns="http://www.w3.org/2000/svg" id="path4522" d="m 348.3144,223.69521 40.24788,-17.910210000000006 -36.93912,-32.46936 z" style="fill: rgb(0, 163, 163);"/><path id="path4524" d="m 259.38583,267.26664 89.53361,-42.91022 3.4180099999999953,-51.39792 z" style="fill: rgb(62, 60, 62);"/><path id="path4526" d="m 260.10012,266.55235 3.684439999999995,-37.26591 89.26717,-56.68508 z" style="fill: rgb(28, 32, 44);"/><path id="path4528" d="m 352.95726,172.98092 -81.53782999999999,22.80408 -8.798429999999996,35.55239 z" style="fill: rgb(178, 177, 183);"/><path id="path4548" d="m 264.31638,230.30707 7.103050000000003,-34.52207 -51.22484,61.81636 z" style="fill: rgb(157, 156, 163);"/><path id="path4550" d="m 272.60012,195.48092 -93.41021,73.8755 41.34015,-11.69007 z" style="fill: rgb(138, 137, 145);"/><path id="path4490" d="m 272.60012,195.48092 -35.46641,-4.33878 -57.90966,78.16200000000002 z" style="fill: rgb(108, 104, 119);"/><path xmlns="http://www.w3.org/2000/svg" id="path4701" d="m 417.21834,273.55164 24.668450000000007,-31.734720000000003 -53.39305999999999,-37.064 z" style="fill: rgb(0, 176, 176);"/><path xmlns="http://www.w3.org/2000/svg" id="path4488" d="m 417.72342,273.80417 -41.24401,-7.238520000000001 12.266849999999998,-61.307649999999995 z" style="fill: rgb(2, 173, 173);"/><path xmlns="http://www.w3.org/2000/svg" id="path4703" d="m 348.02289,223.04401 28.70906,43.52165 12.519390000000001,-62.06528 z" style="fill: rgb(0, 184, 184);"/><path xmlns="http://www.w3.org/2000/svg" id="path4705" d="m 348.27543,223.04401 28.91827,42.91197 -36.17715,22.892139999999998 z" style="fill: rgb(0, 163, 163);"/><path id="path4707" d="m 341.4569,289.209 6.990780000000001,-66.07990000000001 -60.96920999999999,59.91064999999999 z" style="fill: rgb(158, 152, 154);"/><path id="path4718" d="m 259.12947,266.98564 89.31821,-43.85654 -60.96921,59.91065 z" style="fill: rgb(28, 32, 44);"/><path id="path4720" d="m 260.16261,266.06345 -27.73454,27.271259999999998 55.67540000000001,-10.473530000000004 z" style="fill: rgb(66, 60, 62);"/><path id="path4722" d="m 260.24422,266.11576 -25.76258,27.04038 -90.44483,28.77449 z" style="fill: rgb(29, 31, 46);"/><path id="path4724" d="m 260.23656,266.34663 -103.21279,33.55408 -12.674460000000003,22.38706 z" style="fill: rgb(62, 60, 61);"/><path id="path4726" d="m 260.19192,266.37596 -103.39136,33.74796 28.652500000000003,-17.08417 z" style="fill: rgb(27, 30, 46);"/><path id="path4728" d="m 260.68934,266.3683 -80.93714,2.7227500000000013 5.700859999999999,13.9487 z" style="fill: rgb(62, 60, 61);"/><path id="path4730" d="m 260.71866,266.59151 -81.72407,2.87835 41.81380999999999,-12.441540000000003 z" style="fill: rgb(45, 47, 45);"/><path id="path4732" d="m 260.6052,267.5625 4.694589999999998,-38.27606 -45.08312,27.9152 z" style="fill: rgb(60, 60, 60);"/><path xmlns="http://www.w3.org/2000/svg" id="path4791" d="m 417.72342,273.80417 -41.95830000000001,-9.024230000000003 17.266850000000005,36.19235 z" style="fill: rgb(0, 163, 163);"/><path xmlns="http://www.w3.org/2000/svg" id="path4793" d="m 376.71454,265.64861 16.432389999999998,35.00968999999999 -40.73028,16.58103 z" style="fill: rgb(2, 173, 173);"/><path xmlns="http://www.w3.org/2000/svg" id="path4795" d="m 353.2285,316.91385 23.50345,-51.10581 -35.12854999999999,22.516310000000004 z" style="fill: rgb(20, 153, 153);"/><path id="path4806" d="m 352.97596,316.91385 -30.782269999999997,6.080370000000002 19.66225,-34.9224 z" style="fill: rgb(191, 191, 191);"/><path id="path4808" d="m 275.38021,325.70935 48.07617,-2.4625899999999987 18.399560000000008,-35.17494000000001 z" style="fill: rgb(172, 170, 171);"/><path id="path4810" d="m 278.05879,324.99507 9.53717,-42.15441 54.25998,5.231159999999999 z" style="fill: rgb(145, 139, 141);"/><path id="path5485" d="m 259.53685,324.48999 28.816719999999997,-42.40694 -10.09392,43.82617 z" style="fill: rgb(134, 125, 126);"/><path id="path4812" d="m 259.71542,324.66856 29.39577,-42.33298 -55.31582,10.7165 z" style="fill: rgb(145, 139, 141);"/><path id="path4492" d="m 263.64399,325.73999 -35.33374,3.3506600000000013 5.485120000000002,-36.03857 z" style="fill: rgb(154, 154, 154);"/><path id="path4814" d="m 228.64399,328.23999 -31.40517,4.06495 36.55655,-39.25286 z" style="fill: rgb(191, 191, 191);"/><path id="path4816" d="m 190.07256,307.34713 7.166260000000001,24.95781 36.55655,-39.25286 z" style="fill: rgb(134, 125, 127);"/><path id="path4836" d="m 190.07256,307.34713 7.166260000000001,24.95781 -119.514876,94.49714 z" style="fill: rgb(28, 32, 44);"/><path id="path4838" d="m 100.92660000000001,430.08066 96.31222,-97.77572 -119.514876,94.49714 z" style="fill: rgb(62, 60, 61);"/><path id="path4840" d="m 100.92660000000001,430.08066 96.31222,-97.77572 -89.46285,114.44765000000001 z" style="fill: rgb(33, 32, 47);"/><path id="path4851" d="m 201.43678,345.22784 -4.197960000000002,-12.922899999999998 -89.46285,114.44765 z" style="fill: rgb(188, 187, 185);"/><path id="path4853" d="m 201.43678,345.22784 -4.197960000000002,-12.922899999999998 32.08721,-4.0973299999999995 z" style="fill: rgb(172, 170, 171);"/><path id="path4855" d="m 201.43678,345.22784 26.35915,-16.45843 34.86513,-5.1074899999999985 z" style="fill: rgb(134, 131, 133);"/><path id="path4895" d="m 277.70164,325.35221 43.25474,-1.9268799999999997 3.935279999999999,7.682200000000002 z" style="fill: rgb(62, 60, 61);"/><path id="path4897" d="m 323.95164,329.81649 -16.92383,-1.7483 33.39956,50.18219 z" style="fill: rgb(62, 60, 61);"/><path id="path4921" d="m 340.38021,378.38792 6.647599999999997,-14.2483 -23.74329,-35.17495 z" style="fill: rgb(78, 74, 75);"/><path id="path4923" d="m 339.48735,378.38792 55.040459999999996,5.037410000000001 -47.85044,-19.99637 z" style="fill: rgb(78, 74, 75);"/><path id="path4925" d="m 341.0945,378.38792 -20.673830000000002,6.287410000000001 13.7567,-16.96066 z" style="fill: rgb(62, 60, 61);"/><path id="path4927" d="m 239.8445,330.88792 20.57617,-6.39116 23.93528,1.4322 z" style="fill: rgb(25, 30, 49);"/><path id="path4929" d="m 261.0945,327.13792 30.57617,39.68027 -7.671859999999999,-41.24636999999999 z" style="fill: rgb(25, 30, 49);"/><path id="path4931" d="m 299.30879,358.03078 -7.816690000000001,8.43027 -7.493290000000002,-40.88923 z" style="fill: rgb(76, 72, 69);"/><path id="path4933" d="m 299.30879,358.03078 -8.70955,8.43027 35.721,1.6107700000000005 z" style="fill: rgb(76, 72, 69);"/><path id="path4935" d="m 286.0945,358.92364 5.397600000000001,7.5374099999999995 -31.60043,5.717910000000002 z" style="fill: rgb(25, 30, 49);"/></svg>